<?xml version="1.0" encoding="UTF-8" standalone="no"?>
<svg width="512" height="512" viewBox="0 0 512 512" fill="none" xmlns="http://www.w3.org/2000/svg">
  <!-- Safe zone: 128px margin from each edge -->
  <rect width="512" height="512" fill="#ef0e44"/>
  <path d="M256 128C180.772 128 120 188.772 120 264C120 339.228 180.772 400 256 400C331.228 400 392 339.228 392 264C392 188.772 331.228 128 256 128Z" fill="#FFF9F9"/>
  <path d="M256 174C231.148 174 211 194.148 211 219C211 243.852 231.148 264 256 264C280.852 264 301 243.852 301 219C301 194.148 280.852 174 256 174Z" fill="#ef0e44"/>
  <path d="M256 300C213.49 300 179 334.49 179 377H333C333 334.49 298.51 300 256 300Z" fill="#ef0e44"/>
</svg> 