<?xml version="1.0" encoding="UTF-8" standalone="no"?>
<svg width="512" height="512" viewBox="0 0 512 512" fill="none" xmlns="http://www.w3.org/2000/svg">
  <rect width="512" height="512" rx="86" fill="#ef0e44"/>
  <path d="M256 138C189.568 138 136 191.568 136 258C136 324.432 189.568 378 256 378C322.432 378 376 324.432 376 258C376 191.568 322.432 138 256 138Z" fill="#FFF9F9"/>
  <path d="M256 180C234.952 180 218 196.952 218 218C218 239.048 234.952 256 256 256C277.048 256 294 239.048 294 218C294 196.952 277.048 180 256 180Z" fill="#ef0e44"/>
  <path d="M256 286C217.432 286 186 317.432 186 356H326C326 317.432 294.568 286 256 286Z" fill="#ef0e44"/>
</svg> 