<?xml version="1.0" encoding="UTF-8" standalone="no"?>
<svg width="192" height="192" viewBox="0 0 192 192" fill="none" xmlns="http://www.w3.org/2000/svg">
  <rect width="192" height="192" rx="32" fill="#ef0e44"/>
  <path d="M96 52C70.588 52 50 72.588 50 98C50 123.412 70.588 144 96 144C121.412 144 142 123.412 142 98C142 72.588 121.412 52 96 52Z" fill="#FFF9F9"/>
  <path d="M96 68C87.832 68 81 74.832 81 83C81 91.168 87.832 98 96 98C104.168 98 111 91.168 111 83C111 74.832 104.168 68 96 68Z" fill="#ef0e44"/>
  <path d="M96 110C80.536 110 68 122.536 68 138H124C124 122.536 111.464 110 96 110Z" fill="#ef0e44"/>
</svg> 