<?xml version="1.0" encoding="UTF-8" standalone="no"?>
<svg width="96" height="96" viewBox="0 0 96 96" fill="none" xmlns="http://www.w3.org/2000/svg">
  <circle cx="48" cy="48" r="48" fill="#FF9900"/>
  <path d="M28 32C28 32 36 36 48 32C60 28 68 32 68 32V52C68 52 60 48 48 52C36 56 28 52 28 52V32Z" fill="#FFF9F9"/>
  <path d="M40 40H44V44H40V40Z" fill="#FF6600"/>
  <path d="M52 40H56V44H52V40Z" fill="#FF6600"/>
  <path d="M44 52C44 52 48 56 52 52" stroke="#FF6600" stroke-width="2" stroke-linecap="round"/>
  <path d="M32 58L38 58" stroke="#FF9900" stroke-width="2" stroke-linecap="round"/>
  <path d="M58 58L64 58" stroke="#FF9900" stroke-width="2" stroke-linecap="round"/>
  <path d="M30 66C30 66 38 72 48 66C58 60 66 66 66 66" stroke="#FFF9F9" stroke-width="3" stroke-linecap="round"/>
</svg> 