<?xml version="1.0" encoding="UTF-8" standalone="no"?>
<svg width="750" height="1334" viewBox="0 0 750 1334" fill="none" xmlns="http://www.w3.org/2000/svg">
  <!-- Background -->
  <rect width="750" height="1334" fill="#F0F9FF"/>
  
  <!-- Header -->
  <rect width="750" height="80" fill="#1E40AF"/>
  <text x="375" y="50" font-family="Arial" font-size="24" fill="white" text-anchor="middle">Calypso Universe</text>
  
  <!-- User Avatar -->
  <circle cx="60" cy="40" r="25" fill="#F0F9FF"/>
  <path d="M50 40C50 34.477 54.477 30 60 30C65.523 30 70 34.477 70 40C70 45.523 65.523 50 60 50C54.477 50 50 45.523 50 40Z" fill="#1E40AF"/>
  <path d="M45 60C45 60 52 50 60 50C68 50 75 60 75 60H45Z" fill="#1E40AF"/>
  
  <!-- Main Menu Items -->
  <rect x="75" y="150" width="600" height="120" rx="10" fill="white" stroke="#E0E7FF" stroke-width="2"/>
  <text x="150" y="215" font-family="Arial" font-size="24" fill="#1E40AF">World Map</text>
  <circle cx="120" cy="210" r="30" fill="#1E40AF"/>
  
  <rect x="75" y="300" width="600" height="120" rx="10" fill="white" stroke="#E0E7FF" stroke-width="2"/>
  <text x="150" y="365" font-family="Arial" font-size="24" fill="#1E40AF">My Avatar</text>
  <circle cx="120" cy="360" r="30" fill="#1E40AF"/>
  
  <rect x="75" y="450" width="600" height="120" rx="10" fill="white" stroke="#E0E7FF" stroke-width="2"/>
  <text x="150" y="515" font-family="Arial" font-size="24" fill="#1E40AF">Redeem Code</text>
  <circle cx="120" cy="510" r="30" fill="#1E40AF"/>
  
  <rect x="75" y="600" width="600" height="120" rx="10" fill="white" stroke="#E0E7FF" stroke-width="2"/>
  <text x="150" y="665" font-family="Arial" font-size="24" fill="#1E40AF">Mini Games</text>
  <circle cx="120" cy="660" r="30" fill="#1E40AF"/>
  
  <rect x="75" y="750" width="600" height="120" rx="10" fill="white" stroke="#E0E7FF" stroke-width="2"/>
  <text x="150" y="815" font-family="Arial" font-size="24" fill="#1E40AF">Settings</text>
  <circle cx="120" cy="810" r="30" fill="#1E40AF"/>
  
  <!-- Daily Login Bonus -->
  <rect x="75" y="920" width="600" height="150" rx="10" fill="#1E40AF"/>
  <text x="375" y="980" font-family="Arial" font-size="28" fill="white" text-anchor="middle">Daily Login Bonus!</text>
  <text x="375" y="1020" font-family="Arial" font-size="22" fill="white" text-anchor="middle">Your reward is waiting!</text>
  <rect x="275" y="1040" width="200" height="40" rx="5" fill="white"/>
  <text x="375" y="1067" font-family="Arial" font-size="18" fill="#1E40AF" text-anchor="middle">Claim Now</text>
  
  <!-- Footer -->
  <text x="375" y="1250" font-family="Arial" font-size="16" fill="#94A3B8" text-anchor="middle">Calypso Universe © 2023</text>
  <text x="375" y="1280" font-family="Arial" font-size="14" fill="#94A3B8" text-anchor="middle">Powered by Kellogg's</text>
</svg> 